<mxfile host="Electron" modified="2024-03-16T11:05:07.346Z" agent="Mozilla/5.0 (Windows NT 10.0; Win64; x64) AppleWebKit/537.36 (KHTML, like Gecko) draw.io/24.0.4 Chrome/120.0.6099.109 Electron/28.1.0 Safari/537.36" etag="HyXZzONYRSecRcPeXUCz" version="24.0.4" type="device">
  <diagram name="第 1 页" id="UUDyytBbBi4xMaTtEZAG">
    <mxGraphModel dx="1834" dy="836" grid="1" gridSize="10" guides="1" tooltips="1" connect="1" arrows="1" fold="1" page="0" pageScale="1" pageWidth="827" pageHeight="1169" math="0" shadow="0">
      <root>
        <mxCell id="0" />
        <mxCell id="1" parent="0" />
        <mxCell id="t4lTbnx6Mn0Wz-NhQw-Y-35" value="Test Bench" style="rounded=0;whiteSpace=wrap;html=1;dashed=1;strokeWidth=3;verticalAlign=top;fontSize=15;fontStyle=1" vertex="1" parent="1">
          <mxGeometry x="-260" y="260" width="600" height="540" as="geometry" />
        </mxCell>
        <mxCell id="t4lTbnx6Mn0Wz-NhQw-Y-34" value="&lt;font style=&quot;font-size: 15px;&quot;&gt;&lt;b&gt;test case 2&lt;/b&gt;&lt;/font&gt;" style="rounded=0;whiteSpace=wrap;html=1;fillColor=#fff2cc;strokeColor=#d6b656;verticalAlign=top;" vertex="1" parent="1">
          <mxGeometry x="-230" y="600" width="540" height="180" as="geometry" />
        </mxCell>
        <mxCell id="t4lTbnx6Mn0Wz-NhQw-Y-33" value="&lt;font style=&quot;font-size: 15px;&quot;&gt;&lt;b&gt;test case 1&lt;/b&gt;&lt;/font&gt;" style="rounded=0;whiteSpace=wrap;html=1;fillColor=#fff2cc;strokeColor=#d6b656;verticalAlign=top;" vertex="1" parent="1">
          <mxGeometry x="-230" y="300" width="490" height="280" as="geometry" />
        </mxCell>
        <mxCell id="t4lTbnx6Mn0Wz-NhQw-Y-1" value="MxRead" style="text;html=1;align=center;verticalAlign=middle;whiteSpace=wrap;rounded=0;strokeColor=#b85450;fillColor=#f8cecc;fontSize=15;fontStyle=1" vertex="1" parent="1">
          <mxGeometry x="90" y="370" width="100" height="30" as="geometry" />
        </mxCell>
        <mxCell id="t4lTbnx6Mn0Wz-NhQw-Y-2" value="MxWrite" style="text;html=1;align=center;verticalAlign=middle;whiteSpace=wrap;rounded=0;strokeColor=#b85450;fillColor=#f8cecc;fontSize=15;fontStyle=1" vertex="1" parent="1">
          <mxGeometry x="70" y="680" width="100" height="30" as="geometry" />
        </mxCell>
        <mxCell id="t4lTbnx6Mn0Wz-NhQw-Y-3" value="MxErase" style="text;html=1;align=center;verticalAlign=middle;whiteSpace=wrap;rounded=0;strokeColor=#b85450;fillColor=#f8cecc;fontSize=15;fontStyle=1" vertex="1" parent="1">
          <mxGeometry x="90" y="330" width="100" height="30" as="geometry" />
        </mxCell>
        <mxCell id="t4lTbnx6Mn0Wz-NhQw-Y-5" value="MxDeepPowerDown" style="text;html=1;align=center;verticalAlign=middle;whiteSpace=wrap;rounded=0;strokeColor=#b85450;fillColor=#f8cecc;fontSize=15;fontStyle=1" vertex="1" parent="1">
          <mxGeometry x="70" y="630" width="170" height="30" as="geometry" />
        </mxCell>
        <mxCell id="t4lTbnx6Mn0Wz-NhQw-Y-6" value="MxRealseDeepPowerDown" style="text;html=1;align=center;verticalAlign=middle;whiteSpace=wrap;rounded=0;strokeColor=#b85450;fillColor=#f8cecc;fontSize=15;fontStyle=1" vertex="1" parent="1">
          <mxGeometry x="70" y="730" width="220" height="30" as="geometry" />
        </mxCell>
        <mxCell id="t4lTbnx6Mn0Wz-NhQw-Y-7" value="compare" style="text;html=1;align=center;verticalAlign=middle;whiteSpace=wrap;rounded=0;strokeColor=#b85450;fillColor=#f8cecc;fontSize=15;fontStyle=1" vertex="1" parent="1">
          <mxGeometry x="90" y="410" width="130" height="30" as="geometry" />
        </mxCell>
        <mxCell id="t4lTbnx6Mn0Wz-NhQw-Y-21" style="rounded=0;orthogonalLoop=1;jettySize=auto;html=1;exitX=1;exitY=0;exitDx=0;exitDy=0;entryX=0;entryY=0;entryDx=0;entryDy=0;" edge="1" parent="1" source="t4lTbnx6Mn0Wz-NhQw-Y-9" target="t4lTbnx6Mn0Wz-NhQw-Y-3">
          <mxGeometry relative="1" as="geometry" />
        </mxCell>
        <mxCell id="t4lTbnx6Mn0Wz-NhQw-Y-27" value="1" style="edgeLabel;html=1;align=center;verticalAlign=middle;resizable=0;points=[];fontSize=14;fontStyle=1" vertex="1" connectable="0" parent="t4lTbnx6Mn0Wz-NhQw-Y-21">
          <mxGeometry x="-0.0286" y="-1" relative="1" as="geometry">
            <mxPoint y="-1" as="offset" />
          </mxGeometry>
        </mxCell>
        <mxCell id="t4lTbnx6Mn0Wz-NhQw-Y-22" style="rounded=0;orthogonalLoop=1;jettySize=auto;html=1;exitX=1;exitY=1;exitDx=0;exitDy=0;entryX=0;entryY=1;entryDx=0;entryDy=0;" edge="1" parent="1" source="t4lTbnx6Mn0Wz-NhQw-Y-9" target="t4lTbnx6Mn0Wz-NhQw-Y-20">
          <mxGeometry relative="1" as="geometry" />
        </mxCell>
        <mxCell id="t4lTbnx6Mn0Wz-NhQw-Y-32" value="6" style="edgeLabel;html=1;align=center;verticalAlign=middle;resizable=0;points=[];fontSize=14;fontStyle=1" vertex="1" connectable="0" parent="t4lTbnx6Mn0Wz-NhQw-Y-22">
          <mxGeometry x="0.2236" relative="1" as="geometry">
            <mxPoint as="offset" />
          </mxGeometry>
        </mxCell>
        <mxCell id="t4lTbnx6Mn0Wz-NhQw-Y-23" style="rounded=0;orthogonalLoop=1;jettySize=auto;html=1;exitX=1;exitY=0.25;exitDx=0;exitDy=0;entryX=0;entryY=0.5;entryDx=0;entryDy=0;" edge="1" parent="1" source="t4lTbnx6Mn0Wz-NhQw-Y-9" target="t4lTbnx6Mn0Wz-NhQw-Y-1">
          <mxGeometry relative="1" as="geometry" />
        </mxCell>
        <mxCell id="t4lTbnx6Mn0Wz-NhQw-Y-28" value="2" style="edgeLabel;html=1;align=center;verticalAlign=middle;resizable=0;points=[];fontSize=14;fontStyle=1" vertex="1" connectable="0" parent="t4lTbnx6Mn0Wz-NhQw-Y-23">
          <mxGeometry x="0.1632" relative="1" as="geometry">
            <mxPoint as="offset" />
          </mxGeometry>
        </mxCell>
        <mxCell id="t4lTbnx6Mn0Wz-NhQw-Y-24" style="rounded=0;orthogonalLoop=1;jettySize=auto;html=1;exitX=1;exitY=0.5;exitDx=0;exitDy=0;entryX=0;entryY=0.5;entryDx=0;entryDy=0;" edge="1" parent="1" source="t4lTbnx6Mn0Wz-NhQw-Y-9" target="t4lTbnx6Mn0Wz-NhQw-Y-7">
          <mxGeometry relative="1" as="geometry" />
        </mxCell>
        <mxCell id="t4lTbnx6Mn0Wz-NhQw-Y-29" value="3" style="edgeLabel;html=1;align=center;verticalAlign=middle;resizable=0;points=[];fontSize=14;fontStyle=1" vertex="1" connectable="0" parent="t4lTbnx6Mn0Wz-NhQw-Y-24">
          <mxGeometry x="0.2174" y="-3" relative="1" as="geometry">
            <mxPoint as="offset" />
          </mxGeometry>
        </mxCell>
        <mxCell id="t4lTbnx6Mn0Wz-NhQw-Y-25" style="rounded=0;orthogonalLoop=1;jettySize=auto;html=1;exitX=1;exitY=0.5;exitDx=0;exitDy=0;entryX=0;entryY=0.5;entryDx=0;entryDy=0;" edge="1" parent="1" source="t4lTbnx6Mn0Wz-NhQw-Y-9" target="t4lTbnx6Mn0Wz-NhQw-Y-18">
          <mxGeometry relative="1" as="geometry" />
        </mxCell>
        <mxCell id="t4lTbnx6Mn0Wz-NhQw-Y-30" value="4" style="edgeLabel;html=1;align=center;verticalAlign=middle;resizable=0;points=[];fontSize=14;fontStyle=1" vertex="1" connectable="0" parent="t4lTbnx6Mn0Wz-NhQw-Y-25">
          <mxGeometry x="0.2477" y="1" relative="1" as="geometry">
            <mxPoint y="-1" as="offset" />
          </mxGeometry>
        </mxCell>
        <mxCell id="t4lTbnx6Mn0Wz-NhQw-Y-26" style="rounded=0;orthogonalLoop=1;jettySize=auto;html=1;exitX=1;exitY=0.75;exitDx=0;exitDy=0;entryX=0;entryY=0.5;entryDx=0;entryDy=0;" edge="1" parent="1" source="t4lTbnx6Mn0Wz-NhQw-Y-9" target="t4lTbnx6Mn0Wz-NhQw-Y-19">
          <mxGeometry relative="1" as="geometry" />
        </mxCell>
        <mxCell id="t4lTbnx6Mn0Wz-NhQw-Y-31" value="5" style="edgeLabel;html=1;align=center;verticalAlign=middle;resizable=0;points=[];fontSize=14;fontStyle=1" vertex="1" connectable="0" parent="t4lTbnx6Mn0Wz-NhQw-Y-26">
          <mxGeometry x="0.234" y="4" relative="1" as="geometry">
            <mxPoint as="offset" />
          </mxGeometry>
        </mxCell>
        <mxCell id="t4lTbnx6Mn0Wz-NhQw-Y-9" value="MxUserTest_RWE" style="text;html=1;align=center;verticalAlign=middle;whiteSpace=wrap;rounded=0;strokeColor=#b85450;fillColor=#f8cecc;fontSize=15;fontStyle=1" vertex="1" parent="1">
          <mxGeometry x="-210" y="440" width="140" height="30" as="geometry" />
        </mxCell>
        <mxCell id="t4lTbnx6Mn0Wz-NhQw-Y-11" style="rounded=0;orthogonalLoop=1;jettySize=auto;html=1;exitX=1;exitY=0;exitDx=0;exitDy=0;entryX=0;entryY=0.25;entryDx=0;entryDy=0;" edge="1" parent="1" source="t4lTbnx6Mn0Wz-NhQw-Y-10" target="t4lTbnx6Mn0Wz-NhQw-Y-5">
          <mxGeometry relative="1" as="geometry" />
        </mxCell>
        <mxCell id="t4lTbnx6Mn0Wz-NhQw-Y-15" value="1" style="edgeLabel;html=1;align=center;verticalAlign=middle;resizable=0;points=[];fontSize=14;fontStyle=1" vertex="1" connectable="0" parent="t4lTbnx6Mn0Wz-NhQw-Y-11">
          <mxGeometry x="0.0444" y="1" relative="1" as="geometry">
            <mxPoint as="offset" />
          </mxGeometry>
        </mxCell>
        <mxCell id="t4lTbnx6Mn0Wz-NhQw-Y-12" style="rounded=0;orthogonalLoop=1;jettySize=auto;html=1;exitX=1;exitY=1;exitDx=0;exitDy=0;entryX=0;entryY=1;entryDx=0;entryDy=0;" edge="1" parent="1" source="t4lTbnx6Mn0Wz-NhQw-Y-10" target="t4lTbnx6Mn0Wz-NhQw-Y-6">
          <mxGeometry relative="1" as="geometry" />
        </mxCell>
        <mxCell id="t4lTbnx6Mn0Wz-NhQw-Y-17" value="3" style="edgeLabel;html=1;align=center;verticalAlign=middle;resizable=0;points=[];fontSize=14;fontStyle=1" vertex="1" connectable="0" parent="t4lTbnx6Mn0Wz-NhQw-Y-12">
          <mxGeometry x="0.1448" y="-1" relative="1" as="geometry">
            <mxPoint as="offset" />
          </mxGeometry>
        </mxCell>
        <mxCell id="t4lTbnx6Mn0Wz-NhQw-Y-13" style="edgeStyle=orthogonalEdgeStyle;rounded=0;orthogonalLoop=1;jettySize=auto;html=1;exitX=1;exitY=0.5;exitDx=0;exitDy=0;entryX=0;entryY=0.5;entryDx=0;entryDy=0;" edge="1" parent="1" source="t4lTbnx6Mn0Wz-NhQw-Y-10" target="t4lTbnx6Mn0Wz-NhQw-Y-2">
          <mxGeometry relative="1" as="geometry" />
        </mxCell>
        <mxCell id="t4lTbnx6Mn0Wz-NhQw-Y-16" value="2" style="edgeLabel;html=1;align=center;verticalAlign=middle;resizable=0;points=[];fontSize=14;fontStyle=1" vertex="1" connectable="0" parent="t4lTbnx6Mn0Wz-NhQw-Y-13">
          <mxGeometry x="0.136" y="1" relative="1" as="geometry">
            <mxPoint as="offset" />
          </mxGeometry>
        </mxCell>
        <mxCell id="t4lTbnx6Mn0Wz-NhQw-Y-10" value="MxUserTest_DP" style="text;html=1;align=center;verticalAlign=middle;whiteSpace=wrap;rounded=0;strokeColor=#b85450;fillColor=#f8cecc;fontSize=15;fontStyle=1" vertex="1" parent="1">
          <mxGeometry x="-225" y="680" width="170" height="30" as="geometry" />
        </mxCell>
        <mxCell id="t4lTbnx6Mn0Wz-NhQw-Y-18" value="MxWrite" style="text;html=1;align=center;verticalAlign=middle;whiteSpace=wrap;rounded=0;strokeColor=#b85450;fillColor=#f8cecc;fontSize=15;fontStyle=1" vertex="1" parent="1">
          <mxGeometry x="90" y="460" width="100" height="30" as="geometry" />
        </mxCell>
        <mxCell id="t4lTbnx6Mn0Wz-NhQw-Y-19" value="MxRead" style="text;html=1;align=center;verticalAlign=middle;whiteSpace=wrap;rounded=0;strokeColor=#b85450;fillColor=#f8cecc;fontSize=15;fontStyle=1" vertex="1" parent="1">
          <mxGeometry x="90" y="500" width="100" height="30" as="geometry" />
        </mxCell>
        <mxCell id="t4lTbnx6Mn0Wz-NhQw-Y-20" value="compare" style="text;html=1;align=center;verticalAlign=middle;whiteSpace=wrap;rounded=0;strokeColor=#b85450;fillColor=#f8cecc;fontSize=15;fontStyle=1" vertex="1" parent="1">
          <mxGeometry x="90" y="540" width="130" height="30" as="geometry" />
        </mxCell>
      </root>
    </mxGraphModel>
  </diagram>
</mxfile>
